<svg width="70" height="30" viewBox="0 0 70 30" fill="none" xmlns="http://www.w3.org/2000/svg">
<path d="M0.5 15C0.5 6.99187 6.99187 0.5 15 0.5H55C63.0081 0.5 69.5 6.99187 69.5 15C69.5 23.0081 63.0081 29.5 55 29.5H15C6.99187 29.5 0.5 23.0081 0.5 15Z" fill="#21ACE3" stroke="#21ACE3"/>
<path d="M42.5 15C42.5 14.5027 42.3025 14.0258 41.9508 13.6742C41.5992 13.3225 41.1223 13.125 40.625 13.125H37.5C37.5 13.788 37.2366 14.4239 36.7678 14.8928C36.2989 15.3616 35.663 15.625 35 15.625C34.337 15.625 33.7011 15.3616 33.2322 14.8928C32.7634 14.4239 32.5 13.788 32.5 13.125H29.375C28.8777 13.125 28.4008 13.3225 28.0492 13.6742C27.6975 14.0258 27.5 14.5027 27.5 15M42.5 15V20C42.5 20.4973 42.3025 20.9742 41.9508 21.3258C41.5992 21.6775 41.1223 21.875 40.625 21.875H29.375C28.8777 21.875 28.4008 21.6775 28.0492 21.3258C27.6975 20.9742 27.5 20.4973 27.5 20V15M42.5 15V12.5M27.5 15V12.5M42.5 12.5C42.5 12.0027 42.3025 11.5258 41.9508 11.1742C41.5992 10.8225 41.1223 10.625 40.625 10.625H29.375C28.8777 10.625 28.4008 10.8225 28.0492 11.1742C27.6975 11.5258 27.5 12.0027 27.5 12.5M42.5 12.5V10C42.5 9.50272 42.3025 9.02581 41.9508 8.67417C41.5992 8.32254 41.1223 8.125 40.625 8.125H29.375C28.8777 8.125 28.4008 8.32254 28.0492 8.67417C27.6975 9.02581 27.5 9.50272 27.5 10V12.5" stroke="white" stroke-width="1.5" stroke-linecap="round" stroke-linejoin="round"/>
</svg>
