<svg width="366" height="506" viewBox="0 0 366 506" fill="none" xmlns="http://www.w3.org/2000/svg">
<g filter="url(#filter0_bd_5748_562)">
<mask id="path-1-inside-1_5748_562" fill="white">
<path d="M14.4722 59C14.4722 36.3726 14.4722 25.0589 21.5016 18.0294C28.531 11 39.8448 11 62.4722 11H303.321C325.949 11 337.262 11 344.292 18.0294C351.321 25.0589 351.321 36.3726 351.321 59V447.073C351.321 469.701 351.321 481.014 344.292 488.044C337.262 495.073 325.949 495.073 303.321 495.073H62.4722C39.8448 495.073 28.531 495.073 21.5016 488.044C14.4722 481.014 14.4722 469.701 14.4722 447.073V59Z"/>
</mask>
<path d="M14.4722 59C14.4722 36.3726 14.4722 25.0589 21.5016 18.0294C28.531 11 39.8448 11 62.4722 11H303.321C325.949 11 337.262 11 344.292 18.0294C351.321 25.0589 351.321 36.3726 351.321 59V447.073C351.321 469.701 351.321 481.014 344.292 488.044C337.262 495.073 325.949 495.073 303.321 495.073H62.4722C39.8448 495.073 28.531 495.073 21.5016 488.044C14.4722 481.014 14.4722 469.701 14.4722 447.073V59Z" fill="url(#paint0_linear_5748_562)" fill-opacity="0.12" shape-rendering="crispEdges"/>
<path d="M14.4722 11H351.321H14.4722ZM351.321 471.073C351.321 489.857 336.094 505.085 317.31 505.085H48.4834C29.6995 505.085 14.4722 489.857 14.4722 471.073C14.4722 478.799 25.2173 485.062 38.4722 485.062H327.321C340.576 485.062 351.321 478.799 351.321 471.073ZM14.4722 495.073V11V495.073ZM351.321 11V495.073V11Z" fill="url(#paint1_linear_5748_562)" mask="url(#path-1-inside-1_5748_562)"/>
</g>
<defs>
<filter id="filter0_bd_5748_562" x="-36.173" y="-37.2896" width="438.139" height="585.364" filterUnits="userSpaceOnUse" color-interpolation-filters="sRGB">
<feFlood flood-opacity="0" result="BackgroundImageFix"/>
<feGaussianBlur in="BackgroundImageFix" stdDeviation="5.88897"/>
<feComposite in2="SourceAlpha" operator="in" result="effect1_backgroundBlur_5748_562"/>
<feColorMatrix in="SourceAlpha" type="matrix" values="0 0 0 0 0 0 0 0 0 0 0 0 0 0 0 0 0 0 127 0" result="hardAlpha"/>
<feOffset dy="2.35559"/>
<feGaussianBlur stdDeviation="25.3226"/>
<feComposite in2="hardAlpha" operator="out"/>
<feColorMatrix type="matrix" values="0 0 0 0 0.129412 0 0 0 0 0.67451 0 0 0 0 0.890196 0 0 0 0.29 0"/>
<feBlend mode="normal" in2="effect1_backgroundBlur_5748_562" result="effect2_dropShadow_5748_562"/>
<feBlend mode="normal" in="SourceGraphic" in2="effect2_dropShadow_5748_562" result="shape"/>
</filter>
<linearGradient id="paint0_linear_5748_562" x1="41.8397" y1="57.8173" x2="421.757" y2="140.018" gradientUnits="userSpaceOnUse">
<stop stop-color="white"/>
<stop offset="1" stop-color="white" stop-opacity="0"/>
</linearGradient>
<linearGradient id="paint1_linear_5748_562" x1="182.897" y1="11" x2="0.232912" y2="27.8298" gradientUnits="userSpaceOnUse">
<stop stop-color="#21ACE3"/>
<stop offset="1" stop-color="#49CBFF"/>
</linearGradient>
</defs>
</svg>
