<svg width="51" height="51" viewBox="0 0 51 51" fill="none" xmlns="http://www.w3.org/2000/svg">
<g clip-path="url(#clip0_5748_682)">
<path d="M44.1697 42.4259C43.9676 42.4259 43.7713 42.3566 43.6038 42.2181C43.2401 41.9063 43.1997 41.3578 43.5115 40.994C46.9642 36.987 48.9792 31.9234 49.2333 26.6519H38.852C38.7538 30.9014 38.0956 35.1163 36.9005 39.1926C36.7677 39.6487 36.2827 39.9143 35.8265 39.7815C35.3704 39.6487 35.1048 39.1637 35.2376 38.7076C36.4674 34.5158 37.1025 30.1682 37.1314 25.7858C37.1314 25.3066 37.5183 24.9255 37.9975 24.9255H50.1225C50.3534 24.9255 50.5786 25.0179 50.7403 25.1854C50.9019 25.3528 50.9943 25.5722 50.9885 25.8032C50.9192 31.7964 48.731 37.599 44.8163 42.1372C44.6431 42.3336 44.4006 42.4375 44.1581 42.4375L44.1697 42.4259Z" fill="white"/>
<path d="M50.134 26.3632C49.6547 26.3632 49.2679 25.9763 49.2679 25.4971C49.2679 20.0235 47.3741 14.7174 43.9156 10.4794C41.7677 11.3802 39.4986 12.1192 37.1544 12.685C38.2977 16.8653 38.875 21.1725 38.875 25.4971C38.875 25.9763 38.4882 26.3632 38.009 26.3632C37.5297 26.3632 37.1429 25.9763 37.1429 25.4971C37.1429 21.034 36.502 16.5881 35.2433 12.2924C35.174 12.0615 35.2087 11.8132 35.3299 11.6053C35.4512 11.3975 35.6533 11.2531 35.89 11.2012C38.6614 10.5949 41.3289 9.72885 43.8232 8.63761C44.1696 8.48749 44.5796 8.57987 44.8278 8.86278C48.8118 13.4876 51.0058 19.3942 51.0058 25.4913C51.0058 25.9706 50.619 26.3574 50.1397 26.3574L50.134 26.3632Z" fill="white"/>
<path d="M6.83618 42.426C6.59368 42.426 6.35118 42.322 6.17797 42.1257C2.19405 37.5009 0 31.5943 0 25.4972C0 19.4 2.19405 13.4934 6.17797 8.86861C6.48975 8.50486 7.03827 8.46444 7.40202 8.77623C7.76576 9.08801 7.80618 9.63653 7.4944 10.0003C3.78184 14.3133 1.73791 19.8157 1.73791 25.4972C1.73791 31.1786 3.78184 36.6868 7.4944 40.994C7.80618 41.3578 7.76576 41.9005 7.40202 42.2181C7.24035 42.3567 7.03827 42.426 6.83618 42.426Z" fill="white"/>
<path d="M14.9252 12.916C14.8617 12.916 14.804 12.9103 14.7405 12.8929C11.8593 12.2578 9.08214 11.3629 6.4897 10.2254C6.05089 10.0349 5.85458 9.52104 6.04512 9.08223C6.23565 8.64342 6.74952 8.44711 7.18833 8.63765C9.68261 9.72889 12.3501 10.5892 15.1215 11.2012C15.5892 11.3051 15.8837 11.767 15.7797 12.2347C15.6931 12.6389 15.3352 12.916 14.9368 12.916H14.9252Z" fill="white"/>
<path d="M12.6388 26.6518H1.09117C0.611942 26.6518 0.225098 26.265 0.225098 25.7857C0.225098 25.3065 0.611942 24.9197 1.09117 24.9197H12.6388C13.118 24.9197 13.5048 25.3065 13.5048 25.7857C13.5048 26.265 13.118 26.6518 12.6388 26.6518Z" fill="white"/>
<path d="M25.9187 26.6519H13.0027C12.5235 26.6519 12.1366 26.265 12.1366 25.7916C12.1193 25.6703 12.1135 25.5837 12.1135 25.4971C12.1135 20.8261 12.7717 16.2186 14.0651 11.8074C14.1921 11.3686 14.6367 11.103 15.0813 11.2069C18.4301 11.946 21.9117 12.3155 25.4221 12.3155C25.4452 12.3155 25.4683 12.3155 25.4857 12.3155C25.9649 12.3155 26.3517 12.7024 26.3517 13.1816C26.3517 13.6608 25.9707 14.0419 25.4972 14.0477C25.4741 14.0477 25.451 14.0477 25.4279 14.0477C22.0676 14.0477 18.7303 13.7186 15.5027 13.0661C14.4519 16.9057 13.8919 20.8896 13.8457 24.9255H25.9187C26.3979 24.9255 26.7848 25.3123 26.7848 25.7916C26.7848 26.2708 26.3979 26.6576 25.9187 26.6576V26.6519Z" fill="white"/>
<path d="M14.9254 39.8854C14.5501 39.8854 14.2037 39.6371 14.094 39.2618C12.8179 34.9141 12.1597 30.3586 12.1309 25.8608C12.1309 25.3816 12.5119 24.9197 12.9912 24.9197C13.4646 24.9197 13.8572 25.3758 13.8572 25.855C13.8803 29.9833 14.4288 33.9788 15.5316 37.9685C18.6091 37.3449 21.7038 37.0389 24.7582 36.9927V26.0744C24.7582 25.5952 25.145 25.2084 25.6242 25.2084C26.1035 25.2084 26.4903 25.5952 26.4903 26.0744V37.8184C26.4903 38.2283 26.2074 38.5689 25.8263 38.6613C25.7513 38.6844 25.6358 38.7191 25.4972 38.7191C22.0676 38.7191 18.5744 39.1059 15.1101 39.8681C15.0466 39.8796 14.9831 39.8911 14.9254 39.8911V39.8854Z" fill="white"/>
<path d="M38.0437 26.6519H25.63C25.1508 26.6519 24.7639 26.265 24.7639 25.7858V13.1758C24.7639 12.6966 25.1508 12.3097 25.63 12.3097C29.1462 12.2982 32.6047 11.9287 35.9131 11.2012C36.3808 11.0972 36.8427 11.3917 36.9466 11.8594C37.0506 12.3271 36.7561 12.789 36.2884 12.8929C33.1302 13.5857 29.8449 13.9668 26.5018 14.0303V24.9139H38.0494C38.5287 24.9139 38.9155 25.3008 38.9155 25.78C38.9155 26.2592 38.5287 26.6461 38.0494 26.6461L38.0437 26.6519Z" fill="white"/>
<path d="M44.1696 10.3005C43.9271 10.3005 43.6846 10.1966 43.5114 10.0002C40.3069 6.27614 36.1151 3.67216 31.3921 2.46544C30.9302 2.34996 30.6473 1.87651 30.7686 1.4146C30.884 0.952699 31.3575 0.669783 31.8194 0.791033C36.8888 2.08436 41.3866 4.87888 44.822 8.87436C45.1338 9.23811 45.0934 9.78084 44.7296 10.0984C44.568 10.237 44.3659 10.3063 44.1638 10.3063L44.1696 10.3005Z" fill="white"/>
<path d="M36.0748 12.916C35.6995 12.916 35.3531 12.6735 35.2434 12.2924C34.1983 8.72998 32.7202 5.28302 30.8553 2.06124C30.6185 1.64552 30.7571 1.12011 31.1728 0.877606C31.5885 0.64088 32.114 0.779451 32.3565 1.19516C34.2907 4.5382 35.8265 8.11218 36.9062 11.8074C37.039 12.2693 36.7792 12.7485 36.3173 12.8813C36.2365 12.9044 36.1556 12.916 36.0748 12.916Z" fill="white"/>
<path d="M6.83044 10.3005C6.62836 10.3005 6.43205 10.2312 6.26461 10.0927C5.90086 9.78088 5.86044 9.23237 6.17223 8.86862C9.61341 4.87315 14.1112 2.07863 19.1748 0.785295C19.6425 0.664046 20.1102 0.946962 20.2257 1.40887C20.3469 1.87077 20.064 2.34422 19.6021 2.4597C14.8791 3.66642 10.6873 6.27041 7.48288 9.99451C7.30966 10.1908 7.06716 10.2947 6.82467 10.2947L6.83044 10.3005Z" fill="white"/>
<path d="M14.9252 12.916C14.8444 12.916 14.7636 12.9044 14.6827 12.8813C14.2266 12.7485 13.961 12.2635 14.0938 11.8074C15.1793 8.11218 16.7093 4.5382 18.6436 1.19516C18.8803 0.779451 19.4115 0.64088 19.8272 0.877606C20.2429 1.11433 20.3815 1.64552 20.1447 2.06124C18.2798 5.28879 16.8017 8.72998 15.7567 12.2924C15.647 12.6677 15.3005 12.916 14.9252 12.916Z" fill="white"/>
<path d="M19.3941 2.49433C19.0073 2.49433 18.6551 2.2345 18.5569 1.84189C18.4415 1.37998 18.7186 0.90653 19.1805 0.791054C23.2915 -0.259778 27.7026 -0.259778 31.8194 0.791054C32.2813 0.912304 32.5642 1.37998 32.4429 1.84189C32.3217 2.30379 31.854 2.58671 31.3921 2.46546C27.5583 1.48968 23.4473 1.48968 19.6135 2.46546C19.5443 2.48278 19.4692 2.49433 19.3999 2.49433H19.3941Z" fill="white"/>
<path d="M25.63 14.2382C25.1508 14.2382 24.7639 13.8514 24.7639 13.3722V1.82457C24.7639 1.34534 25.1508 0.958496 25.63 0.958496C26.1092 0.958496 26.4961 1.34534 26.4961 1.82457V13.3722C26.4961 13.8514 26.1092 14.2382 25.63 14.2382Z" fill="white"/>
<path d="M31.6058 50.2321C31.219 50.2321 30.8668 49.9722 30.7686 49.5796C30.6531 49.1177 30.9303 48.6443 31.3922 48.5288C36.1151 47.3221 40.3069 44.7181 43.5114 40.994C43.8232 40.6302 44.3717 40.5898 44.7354 40.9016C45.0992 41.2134 45.1396 41.7619 44.8278 42.1256C41.3866 46.1211 36.8888 48.9156 31.8252 50.209C31.7559 50.2263 31.6809 50.2378 31.6116 50.2378L31.6058 50.2321Z" fill="white"/>
<path d="M31.6059 50.2321C31.4557 50.2321 31.3114 50.1975 31.1728 50.1166C30.7571 49.8741 30.6185 49.3487 30.8553 48.933C32.7202 45.7055 34.1983 42.2643 35.2434 38.7018C35.3704 38.263 35.815 37.9974 36.2595 38.1014C39.1407 38.7365 41.9179 39.6314 44.5103 40.7689C44.9491 40.9594 45.1454 41.4733 44.9549 41.9121C44.7644 42.3509 44.2505 42.553 43.8117 42.3567C41.5541 41.3693 39.1522 40.5668 36.6637 39.9721C35.5956 43.3902 34.1463 46.6928 32.3449 49.8049C32.1832 50.082 31.8946 50.2379 31.5943 50.2379L31.6059 50.2321Z" fill="white"/>
<path d="M19.3943 50.2321C19.325 50.2321 19.25 50.2263 19.1807 50.2032C14.1113 48.9099 9.6135 46.1154 6.17809 42.1199C5.8663 41.7562 5.90672 41.2134 6.27047 40.8959C6.63422 40.5841 7.17695 40.6245 7.49451 40.9882C10.699 44.7123 14.8908 47.3163 19.6137 48.5231C20.0756 48.6385 20.3585 49.112 20.2373 49.5739C20.1391 49.9665 19.7869 50.2263 19.4001 50.2263L19.3943 50.2321Z" fill="white"/>
<path d="M19.3943 50.2321C19.0941 50.2321 18.8054 50.0762 18.6437 49.7991C16.8423 46.6928 15.3931 43.3844 14.3307 39.9663C11.8364 40.561 9.44027 41.3635 7.18271 42.3509C6.7439 42.5414 6.23581 42.3451 6.0395 41.9063C5.84897 41.4675 6.04527 40.9594 6.48408 40.7631C9.08229 39.6256 11.8537 38.7307 14.7348 38.0956C15.1852 37.9974 15.624 38.263 15.751 38.696C16.7961 42.2585 18.2742 45.6997 20.1391 48.9272C20.3759 49.3429 20.2373 49.8684 19.8216 50.1109C19.683 50.1917 19.5387 50.2263 19.3885 50.2263L19.3943 50.2321Z" fill="white"/>
<path d="M25.5029 51C23.3666 51 21.2418 50.7344 19.1863 50.209C18.7244 50.0935 18.4415 49.62 18.5628 49.1581C18.6782 48.6962 19.1517 48.4133 19.6136 48.5346C23.4474 49.5103 27.5641 49.5103 31.3921 48.5346C31.8598 48.4133 32.3275 48.6962 32.443 49.1581C32.5642 49.62 32.2813 50.0935 31.8194 50.209C29.7639 50.7344 27.6392 51 25.5029 51Z" fill="white"/>
<path d="M25.63 50.0358C25.1508 50.0358 24.7639 49.649 24.7639 49.1698V37.8185C24.7639 37.5875 24.8563 37.3681 25.018 37.2064C25.1796 37.0448 25.4164 36.9639 25.63 36.9524C29.6081 36.9639 33.084 37.3046 36.2596 38.0032C36.7272 38.1072 37.0217 38.5691 36.9178 39.0367C36.8138 39.5044 36.3519 39.8047 35.8843 39.6949C33.0609 39.0772 29.9834 38.748 26.4903 38.6903V49.1698C26.4903 49.649 26.1034 50.0358 25.6242 50.0358H25.63Z" fill="white"/>
</g>
<defs>
<clipPath id="clip0_5748_682">
<rect width="51" height="51" fill="white"/>
</clipPath>
</defs>
</svg>
