<svg width="243" height="45" viewBox="0 0 243 45" fill="none" xmlns="http://www.w3.org/2000/svg">
<rect width="243" height="45" rx="4" fill="#21ACE3"/>
<path d="M38.5797 26.5V17.7727H41.5286C42.2132 17.7727 42.7729 17.8963 43.2076 18.1435C43.6451 18.3878 43.9689 18.7188 44.1792 19.1364C44.3894 19.554 44.4945 20.0199 44.4945 20.5341C44.4945 21.0483 44.3894 21.5156 44.1792 21.9361C43.9718 22.3565 43.6507 22.6918 43.2161 22.9418C42.7814 23.1889 42.2246 23.3125 41.5456 23.3125H39.432V22.375H41.5115C41.9803 22.375 42.3567 22.294 42.6408 22.1321C42.9249 21.9702 43.1309 21.7514 43.2587 21.4759C43.3894 21.1974 43.4547 20.8835 43.4547 20.5341C43.4547 20.1847 43.3894 19.8722 43.2587 19.5966C43.1309 19.321 42.9235 19.1051 42.6365 18.9489C42.3496 18.7898 41.9689 18.7102 41.4945 18.7102H39.6365V26.5H38.5797ZM47.7467 26.6534C47.3319 26.6534 46.9555 26.5753 46.6174 26.419C46.2794 26.2599 46.0109 26.0312 45.812 25.733C45.6132 25.4318 45.5137 25.0682 45.5137 24.642C45.5137 24.267 45.5876 23.9631 45.7353 23.7301C45.883 23.4943 46.0805 23.3097 46.3276 23.1761C46.5748 23.0426 46.8475 22.9432 47.1458 22.8778C47.447 22.8097 47.7495 22.7557 48.0535 22.7159C48.4512 22.6648 48.7737 22.6264 49.0208 22.6009C49.2708 22.5724 49.4526 22.5256 49.5663 22.4602C49.6828 22.3949 49.741 22.2812 49.741 22.1193V22.0852C49.741 21.6648 49.6259 21.3381 49.3958 21.1051C49.1686 20.8722 48.8234 20.7557 48.3603 20.7557C47.8802 20.7557 47.5038 20.8608 47.2311 21.071C46.9583 21.2812 46.7666 21.5057 46.6558 21.7443L45.7012 21.4034C45.8717 21.0057 46.099 20.696 46.383 20.4744C46.67 20.25 46.9825 20.0937 47.3205 20.0057C47.6615 19.9148 47.9967 19.8693 48.3262 19.8693C48.5365 19.8693 48.7779 19.8949 49.0507 19.946C49.3262 19.9943 49.5919 20.0952 49.8475 20.2486C50.1061 20.402 50.3205 20.6335 50.491 20.9432C50.6615 21.2528 50.7467 21.6676 50.7467 22.1875V26.5H49.741V25.6136H49.6899C49.6217 25.7557 49.508 25.9077 49.349 26.0696C49.1899 26.2315 48.9782 26.3693 48.714 26.483C48.4498 26.5966 48.1274 26.6534 47.7467 26.6534ZM47.9001 25.75C48.2978 25.75 48.633 25.6719 48.9058 25.5156C49.1813 25.3594 49.3887 25.1577 49.5279 24.9105C49.67 24.6634 49.741 24.4034 49.741 24.1307V23.2102C49.6984 23.2614 49.6046 23.3082 49.4598 23.3509C49.3177 23.3906 49.1529 23.4261 48.9654 23.4574C48.7808 23.4858 48.6004 23.5114 48.4242 23.5341C48.2509 23.554 48.1103 23.571 48.0024 23.5852C47.741 23.6193 47.4967 23.6747 47.2694 23.7514C47.045 23.8253 46.8632 23.9375 46.724 24.0881C46.5876 24.2358 46.5194 24.4375 46.5194 24.6932C46.5194 25.0426 46.6487 25.3068 46.9072 25.4858C47.1686 25.6619 47.4995 25.75 47.9001 25.75ZM52.7556 28.9545C52.5852 28.9545 52.4332 28.9403 52.2997 28.9119C52.1661 28.8864 52.0738 28.8608 52.0227 28.8352L52.2783 27.9489C52.5227 28.0114 52.7386 28.0341 52.9261 28.017C53.1136 28 53.2798 27.9162 53.4247 27.7656C53.5724 27.6179 53.7073 27.3778 53.8295 27.0455L54.017 26.5341L51.5965 19.9545H52.6874L54.4943 25.1705H54.5624L56.3693 19.9545H57.4602L54.6818 27.4545C54.5568 27.7926 54.4019 28.0724 54.2173 28.294C54.0326 28.5185 53.8181 28.6847 53.5738 28.7926C53.3323 28.9006 53.0596 28.9545 52.7556 28.9545ZM63.1655 26.5L61.1712 19.9545H62.228L63.6428 24.9659H63.711L65.1087 19.9545H66.1826L67.5633 24.9489H67.6314L69.0462 19.9545H70.103L68.1087 26.5H67.1201L65.6883 21.4716H65.586L64.1542 26.5H63.1655ZM71.1926 26.5V19.9545H72.1983V26.5H71.1926ZM71.7039 18.8636C71.5079 18.8636 71.3389 18.7969 71.1968 18.6634C71.0576 18.5298 70.988 18.3693 70.988 18.1818C70.988 17.9943 71.0576 17.8338 71.1968 17.7003C71.3389 17.5668 71.5079 17.5 71.7039 17.5C71.9 17.5 72.0676 17.5668 72.2068 17.7003C72.3488 17.8338 72.4198 17.9943 72.4198 18.1818C72.4198 18.3693 72.3488 18.5298 72.2068 18.6634C72.0676 18.7969 71.9 18.8636 71.7039 18.8636ZM76.6468 19.9545V20.8068H73.2548V19.9545H76.6468ZM74.2434 18.3864H75.2491V24.625C75.2491 24.9091 75.2903 25.1222 75.3727 25.2642C75.4579 25.4034 75.5659 25.4972 75.6965 25.5455C75.8301 25.5909 75.9707 25.6136 76.1184 25.6136C76.2292 25.6136 76.3201 25.608 76.3911 25.5966C76.4622 25.5824 76.519 25.571 76.5616 25.5625L76.7661 26.4659C76.698 26.4915 76.6028 26.517 76.4806 26.5426C76.3585 26.571 76.2036 26.5852 76.0161 26.5852C75.7321 26.5852 75.4536 26.5241 75.1809 26.402C74.911 26.2798 74.6866 26.0938 74.5076 25.8438C74.3315 25.5938 74.2434 25.2784 74.2434 24.8977V18.3864ZM79.0659 22.5625V26.5H78.0602V17.7727H79.0659V20.9773H79.1511C79.3046 20.6392 79.5347 20.3707 79.8415 20.1719C80.1511 19.9702 80.5631 19.8693 81.0773 19.8693C81.5233 19.8693 81.9139 19.9588 82.2492 20.1378C82.5844 20.3139 82.8443 20.5852 83.029 20.9517C83.2165 21.3153 83.3102 21.7784 83.3102 22.3409V26.5H82.3046V22.4091C82.3046 21.8892 82.1696 21.4872 81.8997 21.2031C81.6327 20.9162 81.2619 20.7727 80.7875 20.7727C80.458 20.7727 80.1625 20.8423 79.9011 20.9815C79.6426 21.1207 79.4381 21.3239 79.2875 21.5909C79.1398 21.858 79.0659 22.1818 79.0659 22.5625Z" fill="white"/>
<g clip-path="url(#clip0_5762_5083)">
<path d="M97.5942 17.0938V27.6563H95.0298V23.2392H91.0491V27.6563H88.5229V17.0938H91.0491V21.1651H95.0298V17.0938H97.5942Z" fill="white"/>
<path d="M101.804 17.0938V23.1624C101.769 23.737 101.931 24.3063 102.264 24.7756C102.435 24.9674 102.649 25.1159 102.889 25.2093C103.128 25.3027 103.386 25.3384 103.642 25.3134C103.896 25.3258 104.15 25.2844 104.388 25.1917C104.625 25.0991 104.84 24.9573 105.02 24.7756C105.357 24.3089 105.52 23.7376 105.479 23.1624V17.0938H108.005V23.1624C108.038 24.031 107.839 24.8926 107.431 25.659C107.06 26.3072 106.516 26.8391 105.862 27.1954C105.161 27.5446 104.385 27.7161 103.603 27.6947C102.833 27.7162 102.07 27.5446 101.383 27.1954C100.731 26.8484 100.198 26.3133 99.8523 25.659C99.4615 24.8736 99.277 24.001 99.3164 23.124V17.0938H101.804Z" fill="white"/>
<path d="M121.516 17.1709V27.6566H118.99V21.1271L116.732 27.6951H114.55L112.292 21.1271V27.6951H109.766V17.1709H112.866L115.698 24.4686L118.492 17.1709H121.516Z" fill="white"/>
<path d="M131.085 23.1628C131.464 23.6133 131.668 24.1863 131.659 24.776C131.68 25.1718 131.611 25.5673 131.459 25.9331C131.307 26.2988 131.074 26.6254 130.779 26.8885C130.039 27.4368 129.132 27.7085 128.214 27.6567H123.315V17.0941H128.099C128.982 17.037 129.859 17.2806 130.587 17.7855C130.878 18.0276 131.108 18.3339 131.261 18.6805C131.414 19.027 131.484 19.4043 131.468 19.7828C131.497 20.3509 131.321 20.9105 130.97 21.3576C130.628 21.7799 130.157 22.0771 129.63 22.2026C130.196 22.3782 130.7 22.7112 131.085 23.1628ZM125.803 21.4344H127.487C128.367 21.4344 128.826 21.0503 128.826 20.2821C128.826 19.5139 128.367 19.1298 127.487 19.1298H125.841L125.803 21.4344ZM129.056 24.4303C129.07 24.2627 129.043 24.0943 128.976 23.9401C128.909 23.7859 128.805 23.6507 128.673 23.5469C128.369 23.3098 127.985 23.1997 127.602 23.2396H125.803V25.5826H127.602C128.558 25.5826 129.056 25.1985 129.056 24.4303Z" fill="white"/>
<path d="M135.525 25.6974H138.932V27.6563H132.999V17.0938H135.525V25.6974Z" fill="white"/>
<path d="M138.174 17.0938C138.325 17.0938 138.473 17.1388 138.599 17.2232C138.725 17.3076 138.823 17.4276 138.881 17.568C138.939 17.7083 138.954 17.8628 138.925 18.0118C138.895 18.1608 138.822 18.2977 138.715 18.4051C138.608 18.5126 138.472 18.5857 138.323 18.6154C138.175 18.645 138.021 18.6298 137.881 18.5716C137.741 18.5135 137.621 18.415 137.537 18.2887C137.453 18.1624 137.408 18.0139 137.408 17.8619C137.408 17.6582 137.489 17.4628 137.632 17.3187C137.776 17.1747 137.971 17.0938 138.174 17.0938ZM138.174 18.5379C138.308 18.5379 138.44 18.4978 138.552 18.4227C138.664 18.3476 138.752 18.2408 138.803 18.1159C138.855 17.991 138.868 17.8535 138.842 17.7209C138.816 17.5883 138.751 17.4664 138.656 17.3708C138.56 17.2752 138.439 17.2101 138.307 17.1837C138.174 17.1573 138.038 17.1709 137.913 17.2226C137.789 17.2744 137.682 17.362 137.607 17.4744C137.532 17.5869 137.492 17.719 137.492 17.8543V17.8619C137.495 18.0419 137.567 18.2139 137.695 18.3404C137.822 18.467 137.994 18.538 138.174 18.5379ZM137.898 17.401H138.243C138.442 17.401 138.541 17.4894 138.541 17.6545C138.541 17.7174 138.517 17.7778 138.473 17.823C138.43 17.8681 138.37 17.8945 138.308 17.8965L138.576 18.3036H138.484L138.216 17.8965H137.983V18.3036H137.898V17.401ZM137.983 17.8235H138.212C138.35 17.8235 138.453 17.7774 138.453 17.6507C138.453 17.5239 138.357 17.4702 138.231 17.4702H137.983V17.8235Z" fill="white"/>
</g>
<path d="M200.801 27.8897V17.7959H196.911V17.0859H205.477V17.7959H201.588V27.8897H200.801Z" fill="white"/>
<path d="M189.195 27.1797H195.863V27.8897H188.408V17.0859H195.631V17.7959H189.195V22.0556H194.952V22.7502H189.195V27.1797Z" fill="white"/>
<path d="M179.38 27.8897V17.0859H180.167V27.1797H186.387V27.8897H179.38Z" fill="white"/>
<path d="M170.352 27.8897V17.0859H171.139V27.1797H177.359V27.8897H170.352Z" fill="white"/>
<path d="M167.541 27.8897L166.152 24.8492H159.886L158.513 27.8897H157.664L162.633 17.0859H163.421L168.39 27.8897H167.541ZM160.195 24.1855H165.859L163.019 17.9502L160.195 24.1855Z" fill="white"/>
<path d="M156.761 17.0859H157.532L153.874 27.8897H153.041L149.692 18.1972L146.327 27.8897H145.494L141.821 17.0859H142.654L145.941 26.8093L149.321 17.0859H150.078L153.442 26.8247L156.761 17.0859Z" fill="white"/>
<defs>
<clipPath id="clip0_5762_5083">
<rect width="50.4167" height="10.8277" fill="white" transform="translate(88.5229 17.0859)"/>
</clipPath>
</defs>
</svg>
