<svg width="105" height="16" viewBox="0 0 105 16" fill="none" xmlns="http://www.w3.org/2000/svg">
<g clip-path="url(#clip0_5762_4954)">
<path d="M22 0H2C0.89543 0 0 0.89543 0 2V14C0 15.1046 0.89543 16 2 16H22C23.1046 16 24 15.1046 24 14V2C24 0.89543 23.1046 0 22 0Z" fill="#252525"/>
<path d="M9 13C11.7614 13 14 10.7614 14 8C14 5.23858 11.7614 3 9 3C6.23858 3 4 5.23858 4 8C4 10.7614 6.23858 13 9 13Z" fill="#EB001B"/>
<path d="M15 13C17.7614 13 20 10.7614 20 8C20 5.23858 17.7614 3 15 3C12.2386 3 10 5.23858 10 8C10 10.7614 12.2386 13 15 13Z" fill="#F79E1B"/>
<path fill-rule="evenodd" clip-rule="evenodd" d="M12 4C13.2144 4.91221 14 6.36455 14 8.00037C14 9.63618 13.2144 11.0885 12 12.0007C10.7856 11.0885 10 9.63618 10 8.00037C10 6.36455 10.7856 4.91221 12 4Z" fill="#FF5F00"/>
</g>
<g clip-path="url(#clip1_5762_4954)">
<path d="M48.75 0.25H29.25C28.1454 0.25 27.25 1.14543 27.25 2.25V13.75C27.25 14.8546 28.1454 15.75 29.25 15.75H48.75C49.8546 15.75 50.75 14.8546 50.75 13.75V2.25C50.75 1.14543 49.8546 0.25 48.75 0.25Z" fill="white" stroke="black" stroke-opacity="0.2" stroke-width="0.5"/>
<path d="M29.7877 5.91444C29.2646 5.62751 28.6675 5.39674 28 5.23659L28.028 5.11188H30.765C31.136 5.12489 31.437 5.23651 31.5349 5.63071L32.1298 8.46659L32.312 9.32073L33.978 5.11188H35.7768L33.1029 11.2775H31.304L29.7877 5.91444ZM37.1 11.2841H35.3988L36.4628 5.11188H38.1639L37.1 11.2841ZM43.2668 5.26277L43.0354 6.59559L42.8816 6.53004C42.5737 6.40525 42.1674 6.28054 41.6144 6.29371C40.9427 6.29371 40.6415 6.56277 40.6345 6.82546C40.6345 7.11441 40.9989 7.30484 41.5939 7.58725C42.574 8.02719 43.0286 8.56557 43.0218 9.26819C43.0081 10.5486 41.846 11.3761 40.0611 11.3761C39.2979 11.3694 38.5628 11.2181 38.1638 11.0476L38.4019 9.66205L38.6259 9.76066C39.1789 9.99071 39.5428 10.089 40.222 10.089C40.7118 10.089 41.2369 9.89838 41.2436 9.48488C41.2436 9.21565 41.0199 9.01851 40.3617 8.71646C39.7178 8.42087 38.8568 7.92848 38.8708 7.04198C38.8781 5.84042 40.0611 5 41.741 5C42.399 5 42.9312 5.13789 43.2668 5.26277ZM45.5278 9.09749H46.9417C46.8718 8.78889 46.5496 7.31147 46.5496 7.31147L46.4307 6.77964C46.3467 7.00943 46.1999 7.38373 46.2069 7.37056C46.2069 7.37056 45.6678 8.7429 45.5278 9.09749ZM47.6276 5.11188L49 11.284H47.4249C47.4249 11.284 47.2708 10.5748 47.2219 10.3581H45.0378C44.9746 10.5222 44.6808 11.284 44.6808 11.284H42.8958L45.4226 5.62399C45.5977 5.22342 45.906 5.11188 46.3118 5.11188H47.6276Z" fill="#1434CB"/>
</g>
<g clip-path="url(#clip2_5762_4954)">
<path d="M76 0H56C54.8954 0 54 0.89543 54 2V14C54 15.1046 54.8954 16 56 16H76C77.1046 16 78 15.1046 78 14V2C78 0.89543 77.1046 0 76 0Z" fill="#016FD0"/>
<path fill-rule="evenodd" clip-rule="evenodd" d="M67.764 13.3938V7.69238L77.9116 7.70149V9.27638L76.7387 10.5298L77.9116 11.7947V13.403H76.039L75.0438 12.3048L74.0557 13.4071L67.764 13.3938Z" fill="#FFFFFE"/>
<path fill-rule="evenodd" clip-rule="evenodd" d="M68.4418 12.7692V8.32031H72.2141V9.3452H69.6632V10.0409H72.1533V11.0487H69.6632V11.732H72.2141V12.7692H68.4418Z" fill="#016FD0"/>
<path fill-rule="evenodd" clip-rule="evenodd" d="M72.1953 12.7691L74.2826 10.5421L72.1952 8.32031H73.8108L75.0863 9.73035L76.3654 8.32031H77.9116V8.35532L75.8687 10.5421L77.9116 12.706V12.7691H76.3499L75.0518 11.3449L73.767 12.7691H72.1953Z" fill="#016FD0"/>
<path fill-rule="evenodd" clip-rule="evenodd" d="M68.2374 2.63184H70.6834L71.5426 4.58269V2.63184H74.5624L75.0832 4.09341L75.6057 2.63184H77.9116V8.33323H65.7251L68.2374 2.63184Z" fill="#FFFFFE"/>
<path fill-rule="evenodd" clip-rule="evenodd" d="M68.7005 3.25195L66.7264 7.69712H68.0803L68.4528 6.80696H70.4707L70.8429 7.69712H72.2304L70.2647 3.25195H68.7005ZM68.8701 5.80939L69.4621 4.39432L70.0536 5.80939H68.8701Z" fill="#016FD0"/>
<path fill-rule="evenodd" clip-rule="evenodd" d="M72.212 7.69606V3.25098L74.1151 3.25752L75.0944 5.99025L76.08 3.25098H77.9116V7.69606L76.733 7.70649V4.65314L75.6204 7.69606H74.5446L73.409 4.64271V7.69606H72.212Z" fill="#016FD0"/>
</g>
<g clip-path="url(#clip3_5762_4954)">
<path d="M102.997 15.7499L102.999 15.7499C103.954 15.7581 104.738 14.9773 104.75 14.0042L104.75 2.0063C104.746 1.53569 104.559 1.08617 104.23 0.756802C103.901 0.428269 103.459 0.246149 102.997 0.250071L83.0006 0.250062C82.5411 0.246149 82.0986 0.428269 81.7703 0.756802C81.4411 1.08617 81.2538 1.53569 81.25 2.00426L81.25 13.9937C81.2538 14.4643 81.4411 14.9138 81.7703 15.2432C82.0986 15.5717 82.5411 15.7538 83.0028 15.7499H102.997ZM102.996 16.2499C102.996 16.2499 102.995 16.2499 102.995 16.2499L102.997 16.2499H102.996Z" fill="white" stroke="black" stroke-opacity="0.2" stroke-width="0.5"/>
<path d="M93.6124 16.0002H102.997C103.524 16.0046 104.031 15.7995 104.407 15.4301C104.782 15.0607 104.996 14.5573 105 14.0305V11.6719C101.456 13.7062 97.6128 15.167 93.6124 16.0002Z" fill="#F27712"/>
<path d="M104.172 9.29692H103.32L102.36 8.03072H102.269V9.29692H101.574V6.15209H102.6C103.403 6.15209 103.866 6.48313 103.866 7.07899C103.866 7.56727 103.577 7.88175 103.055 7.98106L104.172 9.29692ZM103.146 7.10382C103.146 6.79761 102.914 6.64037 102.484 6.64037H102.269V7.59209H102.468C102.914 7.59209 103.146 7.42658 103.146 7.10382ZM99.1407 6.15209H101.11V6.68175H99.8358V7.3852H101.061V7.92313H99.8358V8.77554H101.11V9.3052H99.1407V6.15209ZM96.9062 9.37968L95.4 6.14382H96.1614L97.1131 8.26244L98.0731 6.14382H98.8179L97.2952 9.37968H96.9227H96.9062ZM90.6083 9.37141C89.549 9.37141 88.7214 8.6514 88.7214 7.71623C88.7214 6.80589 89.5655 6.06934 90.6248 6.06934C90.9227 6.06934 91.171 6.12727 91.4772 6.25968V6.98796C91.2453 6.76013 90.9333 6.63236 90.6083 6.63209C89.9462 6.63209 89.4414 7.11209 89.4414 7.71623C89.4414 8.35347 89.9379 8.80865 90.6414 8.80865C90.9559 8.80865 91.1959 8.70934 91.4772 8.46106V9.18934C91.1627 9.32175 90.8979 9.37141 90.6083 9.37141ZM88.5062 8.33692C88.5062 8.94934 88.0014 9.37141 87.2731 9.37141C86.7434 9.37141 86.3627 9.18934 86.04 8.77554L86.4952 8.38658C86.6524 8.66796 86.9172 8.80865 87.2483 8.80865C87.5627 8.80865 87.7862 8.6183 87.7862 8.37003C87.7862 8.22934 87.72 8.12175 87.5793 8.03899C87.425 7.96413 87.2644 7.9032 87.0993 7.85692C86.4455 7.65003 86.2221 7.42658 86.2221 6.98796C86.2221 6.47485 86.7021 6.08589 87.331 6.08589C87.7283 6.08589 88.0841 6.21003 88.3821 6.44175L88.0179 6.85554C87.8736 6.69732 87.6693 6.6072 87.4552 6.60727C87.1572 6.60727 86.9421 6.75623 86.9421 6.95485C86.9421 7.12037 87.0662 7.21141 87.48 7.35209C88.2745 7.60037 88.5062 7.83209 88.5062 8.3452V8.33692ZM85.0883 6.15209H85.7834V9.3052H85.0883V6.15209ZM82.8538 9.3052H81.8276V6.15209H82.8538C83.9793 6.15209 84.7572 6.79761 84.7572 7.72451C84.7572 8.19623 84.5255 8.64313 84.12 8.94106C83.7724 9.18934 83.3834 9.3052 82.8455 9.3052H82.8538ZM83.6648 6.9383C83.4331 6.75623 83.1683 6.69003 82.7131 6.69003H82.5227V8.77554H82.7131C83.16 8.77554 83.4414 8.69278 83.6648 8.52727C83.9048 8.32865 84.0455 8.03072 84.0455 7.72451C84.0455 7.4183 83.9048 7.12865 83.6648 6.9383Z" fill="black"/>
<path d="M93.4138 6.06934C92.5034 6.06934 91.7586 6.79761 91.7586 7.69968C91.7586 8.65968 92.4703 9.37968 93.4138 9.37968C94.3407 9.37968 95.069 8.6514 95.069 7.72451C95.069 6.79761 94.349 6.06934 93.4138 6.06934Z" fill="#F27712"/>
</g>
<defs>
<clipPath id="clip0_5762_4954">
<rect width="24" height="16" fill="white"/>
</clipPath>
<clipPath id="clip1_5762_4954">
<rect width="24" height="16" fill="white" transform="translate(27)"/>
</clipPath>
<clipPath id="clip2_5762_4954">
<rect width="24" height="16" fill="white" transform="translate(54)"/>
</clipPath>
<clipPath id="clip3_5762_4954">
<rect width="24" height="16" fill="white" transform="translate(81)"/>
</clipPath>
</defs>
</svg>
