<svg width="20" height="19" viewBox="0 0 20 19" fill="none" xmlns="http://www.w3.org/2000/svg">
<path d="M14.5446 10.5479C15.2943 10.5479 15.9541 10.1804 16.2939 9.62476L19.8726 3.8083C20.2425 3.21679 19.7627 2.48189 19.0029 2.48189H4.20844L3.26879 0.689453H0V2.48189H1.99926L5.59792 9.28419L4.24842 11.471C3.51869 12.6719 4.47834 14.1327 5.99777 14.1327H17.9933V12.3403H5.99777L7.09736 10.5479H14.5446ZM5.15808 4.27433H17.3036L14.5446 8.75542H7.5272L5.15808 4.27433ZM5.99777 15.029C4.89818 15.029 4.00851 15.8356 4.00851 16.8214C4.00851 17.8072 4.89818 18.6138 5.99777 18.6138C7.09736 18.6138 7.99703 17.8072 7.99703 16.8214C7.99703 15.8356 7.09736 15.029 5.99777 15.029ZM15.9941 15.029C14.8945 15.029 14.0048 15.8356 14.0048 16.8214C14.0048 17.8072 14.8945 18.6138 15.9941 18.6138C17.0937 18.6138 17.9933 17.8072 17.9933 16.8214C17.9933 15.8356 17.0937 15.029 15.9941 15.029Z" fill="#8D97AB"/>
</svg>
