<svg width="35" height="35" viewBox="0 0 35 35" fill="none" xmlns="http://www.w3.org/2000/svg">
<rect width="35" height="35" rx="8" fill="#21ACE3"/>
<path d="M7.25 9H8.636C9.146 9 9.591 9.343 9.723 9.835L10.106 11.272M10.106 11.272C15.6766 11.1159 21.2419 11.7352 26.642 13.112C25.818 15.566 24.839 17.95 23.718 20.25H12.5M10.106 11.272L12.5 20.25M12.5 20.25C11.7044 20.25 10.9413 20.5661 10.3787 21.1287C9.81607 21.6913 9.5 22.4544 9.5 23.25H25.25M11 26.25C11 26.4489 10.921 26.6397 10.7803 26.7803C10.6397 26.921 10.4489 27 10.25 27C10.0511 27 9.86032 26.921 9.71967 26.7803C9.57902 26.6397 9.5 26.4489 9.5 26.25C9.5 26.0511 9.57902 25.8603 9.71967 25.7197C9.86032 25.579 10.0511 25.5 10.25 25.5C10.4489 25.5 10.6397 25.579 10.7803 25.7197C10.921 25.8603 11 26.0511 11 26.25ZM23.75 26.25C23.75 26.4489 23.671 26.6397 23.5303 26.7803C23.3897 26.921 23.1989 27 23 27C22.8011 27 22.6103 26.921 22.4697 26.7803C22.329 26.6397 22.25 26.4489 22.25 26.25C22.25 26.0511 22.329 25.8603 22.4697 25.7197C22.6103 25.579 22.8011 25.5 23 25.5C23.1989 25.5 23.3897 25.579 23.5303 25.7197C23.671 25.8603 23.75 26.0511 23.75 26.25Z" stroke="white" stroke-width="1.5" stroke-linecap="round" stroke-linejoin="round"/>
<circle cx="26" cy="12" r="4" fill="white"/>
<path d="M25.48 14.0298V9.95923H26.5092V14.0298H25.48ZM23.9593 12.5091V11.48H28.0299V12.5091H23.9593Z" fill="#21ACE3"/>
</svg>
