<svg width="23" height="14" viewBox="0 0 23 14" fill="none" xmlns="http://www.w3.org/2000/svg">
<path d="M4.18174 2.80714C4.18174 1.70243 3.24562 0.806885 2.09087 0.806885C0.936113 0.806885 0 1.70243 0 2.80714C0 3.91185 0.936113 4.8074 2.09087 4.8074C3.24562 4.8074 4.18174 3.91185 4.18174 2.80714Z" fill="#8D97AB"/>
<path d="M4.18174 11.8067C4.18174 10.7019 3.24562 9.8064 2.09087 9.8064C0.936113 9.8064 0 10.7019 0 11.8067C0 12.9114 0.936113 13.8069 2.09087 13.8069C3.24562 13.8069 4.18174 12.9114 4.18174 11.8067Z" fill="#8D97AB"/>
<path d="M13.5909 2.80714C13.5909 1.70243 12.6548 0.806885 11.5 0.806885C10.3453 0.806885 9.40918 1.70243 9.40918 2.80714C9.40918 3.91185 10.3453 4.8074 11.5 4.8074C12.6548 4.8074 13.5909 3.91185 13.5909 2.80714Z" fill="#8D97AB"/>
<path d="M13.5909 11.8067C13.5909 10.7019 12.6548 9.8064 11.5 9.8064C10.3453 9.8064 9.40918 10.7019 9.40918 11.8067C9.40918 12.9114 10.3453 13.8069 11.5 13.8069C12.6548 13.8069 13.5909 12.9114 13.5909 11.8067Z" fill="#8D97AB"/>
<path d="M23 2.80714C23 1.70243 22.0639 0.806885 20.9091 0.806885C19.7544 0.806885 18.8182 1.70243 18.8182 2.80714C18.8182 3.91185 19.7544 4.8074 20.9091 4.8074C22.0639 4.8074 23 3.91185 23 2.80714Z" fill="#8D97AB"/>
<path d="M23 11.8067C23 10.7019 22.0639 9.8064 20.9091 9.8064C19.7544 9.8064 18.8182 10.7019 18.8182 11.8067C18.8182 12.9114 19.7544 13.8069 20.9091 13.8069C22.0639 13.8069 23 12.9114 23 11.8067Z" fill="#8D97AB"/>
</svg>
