<svg width="11" height="7" viewBox="0 0 11 7" fill="none" xmlns="http://www.w3.org/2000/svg">
<path fill-rule="evenodd" clip-rule="evenodd" d="M0.246802 0.283583C0.59654 -0.0945278 1.18094 -0.0945278 1.53068 0.283583L5.5 4.57493L9.46932 0.283583C9.81906 -0.0945278 10.4035 -0.0945278 10.7532 0.283583C11.0823 0.63935 11.0823 1.20121 10.7532 1.55697L5.86706 6.83951C5.77242 6.94183 5.63937 7 5.5 7C5.36063 7 5.22758 6.94183 5.13294 6.83951L0.246802 1.55697C-0.0822674 1.20121 -0.0822674 0.63935 0.246802 0.283583ZM10.2032 0.962846C10.2033 0.962767 10.2034 0.962688 10.2034 0.962609L10.1113 0.87735L10.2034 0.96261L10.2032 0.962846Z" fill="white"/>
</svg>
