<svg width="51" height="51" viewBox="0 0 51 51" fill="none" xmlns="http://www.w3.org/2000/svg">
<g clip-path="url(#clip0_5748_653)">
<path d="M49.9662 51.0001H39.973C39.401 51.0001 38.9392 50.532 38.9392 49.9521C38.9392 49.3722 39.401 48.9042 39.973 48.9042H48.9325V40.5206C48.9325 39.9407 49.3942 39.4727 49.9662 39.4727C50.5383 39.4727 51 39.9407 51 40.5206V49.9521C51 50.532 50.5383 51.0001 49.9662 51.0001Z" fill="white"/>
<path d="M49.9662 12.226C49.3942 12.226 48.9325 11.7579 48.9325 11.1781V2.09589H39.973C39.401 2.09589 38.9392 1.62781 38.9392 1.04795C38.9392 0.468082 39.401 0 39.973 0H49.9662C50.5383 0 51 0.468082 51 1.04795V11.1781C51 11.7579 50.5383 12.226 49.9662 12.226Z" fill="white"/>
<path d="M1.03378 12.226C0.461757 12.226 0 11.7579 0 11.1781V1.04795C0 0.468082 0.461757 0 1.03378 0H10.3378C10.9099 0 11.3716 0.468082 11.3716 1.04795C11.3716 1.62781 10.9099 2.09589 10.3378 2.09589H2.06757V11.1781C2.06757 11.7579 1.60581 12.226 1.03378 12.226Z" fill="white"/>
<path d="M10.3378 51.0001H1.03378C0.461757 51.0001 0 50.532 0 49.9521V40.5206C0 39.9407 0.461757 39.4727 1.03378 39.4727C1.60581 39.4727 2.06757 39.9407 2.06757 40.5206V48.9042H10.3378C10.9099 48.9042 11.3716 49.3722 11.3716 49.9521C11.3716 50.532 10.9099 51.0001 10.3378 51.0001Z" fill="white"/>
<path d="M16.1959 17.4658H7.23642C6.66439 17.4658 6.20264 16.9977 6.20264 16.4179V7.33566C6.20264 6.7558 6.66439 6.28772 7.23642 6.28772H16.1959C16.7679 6.28772 17.2297 6.7558 17.2297 7.33566V16.4179C17.2297 16.9977 16.7679 17.4658 16.1959 17.4658ZM8.2702 15.3699H15.1621V8.38361H8.2702V15.3699Z" fill="white"/>
<path d="M43.7635 17.4658H34.804C34.232 17.4658 33.7703 16.9977 33.7703 16.4179V7.33566C33.7703 6.7558 34.232 6.28772 34.804 6.28772H43.7635C44.3355 6.28772 44.7973 6.7558 44.7973 7.33566V16.4179C44.7973 16.9977 44.3355 17.4658 43.7635 17.4658ZM35.8378 15.3699H42.7297V8.38361H35.8378V15.3699Z" fill="white"/>
<path d="M16.1959 44.7124H7.23642C6.66439 44.7124 6.20264 44.2443 6.20264 43.6644V34.5822C6.20264 34.0024 6.66439 33.5343 7.23642 33.5343H16.1959C16.7679 33.5343 17.2297 34.0024 17.2297 34.5822V43.6644C17.2297 44.2443 16.7679 44.7124 16.1959 44.7124ZM8.2702 42.6165H15.1621V35.6302H8.2702V42.6165Z" fill="white"/>
<path d="M22.3985 10.8287C22.1229 10.8287 21.861 10.717 21.668 10.5213C21.475 10.3257 21.3647 10.0603 21.3647 9.7808C21.3647 9.50135 21.475 9.23587 21.668 9.04025C22.0539 8.64902 22.7431 8.64902 23.1291 9.04025C23.322 9.23587 23.4323 9.50135 23.4323 9.7808C23.4323 10.0603 23.322 10.3257 23.1291 10.5213C22.9361 10.717 22.6742 10.8287 22.3985 10.8287Z" fill="white"/>
<path d="M28.6014 10.8287C28.3257 10.8287 28.0638 10.717 27.8709 10.5213C27.6779 10.3257 27.5676 10.0533 27.5676 9.7808C27.5676 9.50833 27.6779 9.23587 27.8709 9.04025C28.2568 8.64902 28.9529 8.64902 29.332 9.04025C29.5249 9.23587 29.6352 9.50833 29.6352 9.7808C29.6352 10.0533 29.5249 10.3257 29.332 10.5213C29.139 10.717 28.8771 10.8287 28.6014 10.8287Z" fill="white"/>
<path d="M22.3985 17.1165C22.1229 17.1165 21.861 17.0047 21.668 16.8091C21.475 16.6134 21.3647 16.348 21.3647 16.0685C21.3647 15.7891 21.475 15.5236 21.668 15.328C22.0539 14.9367 22.7431 14.9367 23.1291 15.328C23.322 15.5236 23.4323 15.7891 23.4323 16.0685C23.4323 16.348 23.322 16.6134 23.1291 16.8091C22.9361 17.0047 22.6742 17.1165 22.3985 17.1165Z" fill="white"/>
<path d="M16.1959 23.4041C15.9202 23.4041 15.6583 23.2923 15.4654 23.0967C15.2724 22.901 15.1621 22.6356 15.1621 22.3561C15.1621 22.0767 15.2724 21.8112 15.4654 21.6156C15.8513 21.2243 16.5405 21.2243 16.9264 21.6156C17.1194 21.8112 17.2297 22.0837 17.2297 22.3561C17.2297 22.6286 17.1194 22.901 16.9264 23.0967C16.7335 23.2923 16.4647 23.4041 16.1959 23.4041Z" fill="white"/>
<path d="M22.3985 23.4041C22.1229 23.4041 21.861 23.2923 21.668 23.0967C21.475 22.901 21.3647 22.6356 21.3647 22.3561C21.3647 22.0767 21.475 21.8112 21.668 21.6156C22.0539 21.2243 22.7431 21.2243 23.1291 21.6156C23.322 21.8112 23.4323 22.0767 23.4323 22.3561C23.4323 22.6356 23.322 22.901 23.1291 23.0967C22.9361 23.2923 22.6742 23.4041 22.3985 23.4041Z" fill="white"/>
<path d="M28.6014 23.4041C28.3257 23.4041 28.0638 23.2923 27.8709 23.0967C27.6779 22.901 27.5676 22.6356 27.5676 22.3561C27.5676 22.0767 27.6779 21.8112 27.8709 21.6156C28.2568 21.2243 28.946 21.2243 29.332 21.6156C29.5249 21.8112 29.6352 22.0767 29.6352 22.3561C29.6352 22.6356 29.5249 22.901 29.332 23.0967C29.139 23.2923 28.8771 23.4041 28.6014 23.4041Z" fill="white"/>
<path d="M35.4933 23.4041C35.2245 23.4041 34.9557 23.2923 34.7627 23.0967C34.5697 22.901 34.4595 22.6286 34.4595 22.3561C34.4595 22.0837 34.5697 21.8112 34.7627 21.6156C35.1487 21.2243 35.8379 21.2243 36.2238 21.6156C36.4168 21.8112 36.527 22.0837 36.527 22.3561C36.527 22.6286 36.4168 22.901 36.2238 23.0967C36.0308 23.2923 35.7689 23.4041 35.4933 23.4041Z" fill="white"/>
<path d="M41.6959 23.4041C41.4202 23.4041 41.1583 23.2923 40.9654 23.0967C40.7724 22.901 40.6621 22.6356 40.6621 22.3561C40.6621 22.0767 40.7724 21.8112 40.9654 21.6156C41.3444 21.2243 42.0405 21.2243 42.4264 21.6156C42.6194 21.8112 42.7297 22.0837 42.7297 22.3561C42.7297 22.6286 42.6194 22.901 42.4264 23.0967C42.2335 23.2923 41.9647 23.4041 41.6959 23.4041Z" fill="white"/>
<path d="M9.99326 29.6918C9.71758 29.6918 9.45569 29.58 9.26272 29.3844C9.06974 29.1888 8.95947 28.9233 8.95947 28.6438C8.95947 28.3644 9.06974 28.0989 9.26272 27.9033C9.64866 27.5121 10.3379 27.5121 10.7238 27.9033C10.9168 28.0989 11.027 28.3644 11.027 28.6438C11.027 28.9233 10.9168 29.1888 10.7238 29.3844C10.5308 29.58 10.2689 29.6918 9.99326 29.6918Z" fill="white"/>
<path d="M16.1959 29.6918C15.9202 29.6918 15.6583 29.58 15.4654 29.3844C15.2724 29.1888 15.1621 28.9233 15.1621 28.6438C15.1621 28.3644 15.2724 28.0989 15.4654 27.9033C15.8513 27.5121 16.5405 27.5121 16.9264 27.9033C17.1194 28.0989 17.2297 28.3714 17.2297 28.6438C17.2297 28.9163 17.1194 29.1888 16.9264 29.3844C16.7335 29.58 16.4716 29.6918 16.1959 29.6918Z" fill="white"/>
<path d="M28.6014 29.6918C28.3257 29.6918 28.0638 29.58 27.8709 29.3844C27.6779 29.1888 27.5676 28.9233 27.5676 28.6438C27.5676 28.3644 27.6779 28.0989 27.8709 27.9033C28.2568 27.5121 28.946 27.5121 29.332 27.9033C29.5249 28.0989 29.6352 28.3644 29.6352 28.6438C29.6352 28.9233 29.5249 29.1888 29.332 29.3844C29.139 29.58 28.8771 29.6918 28.6014 29.6918Z" fill="white"/>
<path d="M35.4933 29.6918C35.2245 29.6918 34.9557 29.58 34.7627 29.3844C34.5697 29.1888 34.4595 28.9163 34.4595 28.6438C34.4595 28.3714 34.5697 28.0989 34.7627 27.9033C35.1487 27.5121 35.8379 27.5121 36.2238 27.9033C36.4168 28.0989 36.527 28.3714 36.527 28.6438C36.527 28.9163 36.4168 29.1888 36.2238 29.3844C36.0308 29.58 35.7689 29.6918 35.4933 29.6918Z" fill="white"/>
<path d="M22.3985 35.9795C22.1229 35.9795 21.861 35.8677 21.668 35.6721C21.475 35.4765 21.3647 35.211 21.3647 34.9316C21.3647 34.6521 21.475 34.3866 21.668 34.191C22.0539 33.7998 22.7431 33.7998 23.1291 34.191C23.322 34.3866 23.4323 34.6521 23.4323 34.9316C23.4323 35.211 23.322 35.4765 23.1291 35.6721C22.9361 35.8677 22.6742 35.9795 22.3985 35.9795Z" fill="white"/>
<path d="M28.6014 35.9795C28.3326 35.9795 28.0638 35.8677 27.8709 35.6721C27.6779 35.4765 27.5676 35.204 27.5676 34.9316C27.5676 34.6591 27.6779 34.3866 27.8709 34.191C28.2568 33.7998 28.9529 33.7998 29.332 34.191C29.5249 34.3866 29.6352 34.6521 29.6352 34.9316C29.6352 35.211 29.5249 35.4765 29.332 35.6721C29.139 35.8677 28.8771 35.9795 28.6014 35.9795Z" fill="white"/>
<path d="M41.6959 35.9795C41.4271 35.9795 41.1583 35.8677 40.9654 35.6721C40.7724 35.4765 40.6621 35.211 40.6621 34.9316C40.6621 34.6521 40.7724 34.3866 40.9654 34.191C41.3444 33.7998 42.0405 33.7998 42.4264 34.191C42.6194 34.3866 42.7297 34.6591 42.7297 34.9316C42.7297 35.204 42.6194 35.4765 42.4264 35.6721C42.2335 35.8677 41.9647 35.9795 41.6959 35.9795Z" fill="white"/>
<path d="M22.3985 42.2671C22.1229 42.2671 21.861 42.1553 21.668 41.9597C21.475 41.7641 21.3647 41.4986 21.3647 41.2192C21.3647 40.9397 21.475 40.6742 21.668 40.4786C22.0539 40.0874 22.7431 40.0874 23.1291 40.4786C23.322 40.6742 23.4323 40.9397 23.4323 41.2192C23.4323 41.4986 23.322 41.7641 23.1291 41.9597C22.9361 42.1553 22.6742 42.2671 22.3985 42.2671Z" fill="white"/>
<path d="M35.4933 42.2671C35.2245 42.2671 34.9557 42.1553 34.7627 41.9597C34.5697 41.7641 34.4595 41.4916 34.4595 41.2192C34.4595 40.9467 34.5697 40.6742 34.7627 40.4786C35.1487 40.0874 35.8379 40.0874 36.2238 40.4786C36.4168 40.6742 36.527 40.9467 36.527 41.2192C36.527 41.4916 36.4168 41.7641 36.2238 41.9597C36.0308 42.1553 35.762 42.2671 35.4933 42.2671Z" fill="white"/>
<path d="M41.6959 42.2671C41.4271 42.2671 41.1583 42.1553 40.9654 41.9597C40.7724 41.7641 40.6621 41.4986 40.6621 41.2192C40.6621 40.9397 40.7724 40.6742 40.9654 40.4786C41.3513 40.0874 42.0405 40.0874 42.4264 40.4786C42.6194 40.6742 42.7297 40.9467 42.7297 41.2192C42.7297 41.4916 42.6194 41.7641 42.4264 41.9597C42.2335 42.1553 41.9647 42.2671 41.6959 42.2671Z" fill="white"/>
</g>
<defs>
<clipPath id="clip0_5748_653">
<rect width="51" height="51" fill="white"/>
</clipPath>
</defs>
</svg>
