<svg width="51" height="51" viewBox="0 0 51 51" fill="none" xmlns="http://www.w3.org/2000/svg">
<g clip-path="url(#clip0_5748_679)">
<path d="M25.5029 51C11.4417 51 0 39.5641 0 25.5029C0 11.4417 11.4417 0 25.5029 0C39.5641 0 51.0058 11.4417 51.0058 25.5029C51.0058 39.5641 39.5641 51.0058 25.5029 51.0058V51ZM25.5029 1.73097C12.3937 1.73097 1.73097 12.3937 1.73097 25.5029C1.73097 38.6121 12.3937 49.2748 25.5029 49.2748C38.6121 49.2748 49.2748 38.6121 49.2748 25.5029C49.2748 12.3937 38.6063 1.73097 25.5029 1.73097Z" fill="white"/>
<path d="M19.6118 36.2348C18.2155 36.2348 17.2808 35.1443 17.2808 33.5172V18.0597C17.2808 16.2076 18.4232 15.3767 19.5541 15.3767C20.033 15.3767 20.535 15.5152 21.0427 15.7921L35.9983 23.9392C36.9561 24.4585 37.4984 25.2374 37.4869 26.0683C37.4754 26.9049 36.9157 27.6666 35.9521 28.1628L21.06 35.8483C20.5638 36.1021 20.0792 36.2291 19.6118 36.2291V36.2348ZM19.5599 17.1134C19.0867 17.1134 19.0175 17.7077 19.0175 18.0655V33.523C19.0175 33.8923 19.0925 34.5096 19.6176 34.5096C19.8022 34.5096 20.033 34.4462 20.2753 34.3192L35.1674 26.6338C35.5771 26.4203 35.7617 26.1895 35.7675 26.0568C35.7675 25.9241 35.5886 25.6875 35.1847 25.4682L20.2292 17.3212C19.9176 17.1538 19.6983 17.1192 19.5656 17.1192L19.5599 17.1134Z" fill="white"/>
</g>
<defs>
<clipPath id="clip0_5748_679">
<rect width="51" height="51" fill="white"/>
</clipPath>
</defs>
</svg>
